<?xml version="1.0" encoding="UTF-8" standalone="no"?>
<svg
   id="svg3128"
   width="710.09998"
   height="596.70001"
   viewBox="0 0 710.1 596.7"
   version="1.1"
   sodipodi:docname="mk35.svg"
   inkscape:version="1.3 (0e150ed6c4, 2023-07-21)"
   inkscape:export-filename="mk3.5.svg"
   inkscape:export-xdpi="96"
   inkscape:export-ydpi="96"
   xmlns:inkscape="http://www.inkscape.org/namespaces/inkscape"
   xmlns:sodipodi="http://sodipodi.sourceforge.net/DTD/sodipodi-0.dtd"
   xmlns="http://www.w3.org/2000/svg"
   xmlns:svg="http://www.w3.org/2000/svg">
  <sodipodi:namedview
     id="namedview1"
     pagecolor="#000000"
     bordercolor="#000000"
     borderopacity="0.25"
     inkscape:showpageshadow="2"
     inkscape:pageopacity="0.0"
     inkscape:pagecheckerboard="0"
     inkscape:deskcolor="#d1d1d1"
     inkscape:zoom="2.7800779"
     inkscape:cx="470.67027"
     inkscape:cy="448.36873"
     inkscape:window-width="2560"
     inkscape:window-height="1369"
     inkscape:window-x="-8"
     inkscape:window-y="-8"
     inkscape:window-maximized="1"
     inkscape:current-layer="svg3128"
     showgrid="false" />
  <defs
     id="defs18" />
  <line
     id="line2794"
     x1="0.69999999"
     y1="0.69999999"
     x2="0.69999999"
     y2="596"
     style="fill:none;stroke:#ffffff;stroke-width:1.4px;stroke-linecap:round;stroke-linejoin:round" />
  <line
     id="line2796"
     x1="142.39999"
     y1="0.69999999"
     x2="142.39999"
     y2="595.59998"
     style="fill:none;stroke:#ffffff;stroke-width:1.4px;stroke-linecap:round;stroke-linejoin:round" />
  <line
     id="line2798"
     x1="284.20001"
     y1="0.69999999"
     x2="284.20001"
     y2="595.59998"
     style="fill:none;stroke:#ffffff;stroke-width:1.4px;stroke-linecap:round;stroke-linejoin:round" />
  <line
     id="line2800"
     x1="709.40002"
     y1="596"
     x2="709.40002"
     y2="0.69999999"
     style="fill:none;stroke:#ffffff;stroke-width:1.4px;stroke-linecap:round;stroke-linejoin:round" />
  <line
     id="line2802"
     x1="1.2"
     y1="581.79999"
     x2="709.40002"
     y2="581.79999"
     style="fill:none;stroke:#ffffff;stroke-width:1.4px;stroke-linecap:round;stroke-linejoin:round" />
  <line
     id="line2804"
     x1="0.69999999"
     y1="596"
     x2="709.40002"
     y2="596"
     style="fill:none;stroke:#ffffff;stroke-width:1.4px;stroke-linecap:round;stroke-linejoin:round" />
  <line
     id="line2806"
     x1="1.2"
     y1="440.10001"
     x2="709.40002"
     y2="440.10001"
     style="fill:none;stroke:#ffffff;stroke-width:1.4px;stroke-linecap:round;stroke-linejoin:round" />
  <line
     id="line2808"
     x1="1.2"
     y1="298.39999"
     x2="709.40002"
     y2="298.39999"
     style="fill:none;stroke:#ffffff;stroke-width:1.4px;stroke-linecap:round;stroke-linejoin:round" />
  <line
     id="line2810"
     x1="1.2"
     y1="156.60001"
     x2="709.40002"
     y2="156.60001"
     style="fill:none;stroke:#ffffff;stroke-width:1.4px;stroke-linecap:round;stroke-linejoin:round" />
  <line
     id="line2812"
     x1="1.2"
     y1="14.9"
     x2="709.40002"
     y2="14.9"
     style="fill:none;stroke:#ffffff;stroke-width:1.4px;stroke-linecap:round;stroke-linejoin:round" />
  <line
     id="line2814"
     x1="709.40002"
     y1="0.69999999"
     x2="0.69999999"
     y2="0.69999999"
     style="fill:none;stroke:#ffffff;stroke-width:1.4px;stroke-linecap:round;stroke-linejoin:round" />
  <line
     id="line2816"
     x1="425.89999"
     y1="0.73250824"
     x2="425.89999"
     y2="522.59235"
     style="fill:none;stroke:#ffffff;stroke-width:1.43214px;stroke-linecap:round;stroke-linejoin:round" />
  <line
     id="line2818"
     x1="425.89999"
     y1="522.59998"
     x2="425.89999"
     y2="595.70001"
     style="fill:none;stroke:#ffffff;stroke-width:1.4px;stroke-linecap:round;stroke-linejoin:round" />
  <line
     id="line2820"
     x1="567.59998"
     y1="0.69999999"
     x2="567.59998"
     y2="499.39999"
     style="fill:none;stroke:#ffffff;stroke-width:1.4px;stroke-linecap:round;stroke-linejoin:round" />
  <line
     id="line2822"
     x1="567.59998"
     y1="522.5"
     x2="567.59998"
     y2="527.70001"
     style="fill:none;stroke:#ffffff;stroke-width:1.4px;stroke-linecap:round;stroke-linejoin:round" />
  <line
     id="line2822-9"
     x1="567.59894"
     y1="581.3587"
     x2="567.59894"
     y2="595.12579"
     style="fill:none;stroke:#ffffff;stroke-width:2.27797px;stroke-linecap:round;stroke-linejoin:round" />
  <line
     id="line2826"
     x1="85.800003"
     y1="0.69999999"
     x2="85.800003"
     y2="595.90002"
     style="fill:none;stroke:#ffffff;stroke-width:0.4px;stroke-linecap:round;stroke-linejoin:round" />
  <line
     id="line2828"
     x1="114.1"
     y1="0.69999999"
     x2="114.1"
     y2="595.90002"
     style="fill:none;stroke:#ffffff;stroke-width:0.4px;stroke-linecap:round;stroke-linejoin:round" />
  <line
     id="line2830"
     x1="170.8"
     y1="0.69999999"
     x2="170.8"
     y2="595.90002"
     style="fill:none;stroke:#ffffff;stroke-width:0.4px;stroke-linecap:round;stroke-linejoin:round" />
  <line
     id="line2832"
     x1="199.10001"
     y1="0.69999999"
     x2="199.10001"
     y2="595.90002"
     style="fill:none;stroke:#ffffff;stroke-width:0.4px;stroke-linecap:round;stroke-linejoin:round" />
  <line
     id="line2834"
     x1="227.5"
     y1="0.69999999"
     x2="227.5"
     y2="595.90002"
     style="fill:none;stroke:#ffffff;stroke-width:0.4px;stroke-linecap:round;stroke-linejoin:round" />
  <line
     id="line2836"
     x1="255.8"
     y1="0.69999999"
     x2="255.8"
     y2="595.90002"
     style="fill:none;stroke:#ffffff;stroke-width:0.4px;stroke-linecap:round;stroke-linejoin:round" />
  <line
     id="line2838"
     x1="312.5"
     y1="0.69999999"
     x2="312.5"
     y2="595.90002"
     style="fill:none;stroke:#ffffff;stroke-width:0.4px;stroke-linecap:round;stroke-linejoin:round" />
  <line
     id="line2840"
     x1="340.89999"
     y1="0.69999999"
     x2="340.89999"
     y2="595.90002"
     style="fill:none;stroke:#ffffff;stroke-width:0.4px;stroke-linecap:round;stroke-linejoin:round" />
  <line
     id="line2842"
     x1="681"
     y1="0.69999999"
     x2="681"
     y2="595.90002"
     style="fill:none;stroke:#ffffff;stroke-width:0.4px;stroke-linecap:round;stroke-linejoin:round" />
  <line
     id="line2844"
     x1="29.1"
     y1="0.69999999"
     x2="29.1"
     y2="595.90002"
     style="fill:none;stroke:#ffffff;stroke-width:0.4px;stroke-linecap:round;stroke-linejoin:round" />
  <line
     id="line2846"
     x1="57.400002"
     y1="0.69999999"
     x2="57.400002"
     y2="595.90002"
     style="fill:none;stroke:#ffffff;stroke-width:0.4px;stroke-linecap:round;stroke-linejoin:round" />
  <line
     id="line2848"
     x1="1.5"
     y1="468.39999"
     x2="709.40002"
     y2="468.39999"
     style="fill:none;stroke:#ffffff;stroke-width:0.4px;stroke-linecap:round;stroke-linejoin:round" />
  <line
     id="line2850"
     x1="1.5"
     y1="496.79999"
     x2="709.40002"
     y2="496.79999"
     style="fill:none;stroke:#ffffff;stroke-width:0.4px;stroke-linecap:round;stroke-linejoin:round" />
  <line
     id="line2852"
     x1="1.5"
     y1="525.09998"
     x2="709.40002"
     y2="525.09998"
     style="fill:none;stroke:#ffffff;stroke-width:0.4px;stroke-linecap:round;stroke-linejoin:round" />
  <line
     id="line2852-6"
     x1="676.56848"
     y1="555.83344"
     x2="1384.4684"
     y2="555.83344"
     style="fill:none;stroke:#ffffff;stroke-width:0.4px;stroke-linecap:round;stroke-linejoin:round" />
  <line
     id="line2854"
     x1="1.437655"
     y1="553.5"
     x2="488.66748"
     y2="553.5"
     style="fill:none;stroke:#ffffff;stroke-width:0.331849px;stroke-linecap:round;stroke-linejoin:round" />
  <line
     id="line2856"
     x1="1.5"
     y1="411.70001"
     x2="709.40002"
     y2="411.70001"
     style="fill:none;stroke:#ffffff;stroke-width:0.4px;stroke-linecap:round;stroke-linejoin:round" />
  <line
     id="line2858"
     x1="1.5"
     y1="383.39999"
     x2="709.40002"
     y2="383.39999"
     style="fill:none;stroke:#ffffff;stroke-width:0.4px;stroke-linecap:round;stroke-linejoin:round" />
  <line
     id="line2860"
     x1="1.5"
     y1="355"
     x2="709.40002"
     y2="355"
     style="fill:none;stroke:#ffffff;stroke-width:0.4px;stroke-linecap:round;stroke-linejoin:round" />
  <line
     id="line2862"
     x1="1.5"
     y1="326.70001"
     x2="709.40002"
     y2="326.70001"
     style="fill:none;stroke:#ffffff;stroke-width:0.4px;stroke-linecap:round;stroke-linejoin:round" />
  <line
     id="line2864"
     x1="1.5"
     y1="270"
     x2="709.40002"
     y2="270"
     style="fill:none;stroke:#ffffff;stroke-width:0.4px;stroke-linecap:round;stroke-linejoin:round" />
  <line
     id="line2866"
     x1="1.5"
     y1="241.7"
     x2="709.40002"
     y2="241.7"
     style="fill:none;stroke:#ffffff;stroke-width:0.4px;stroke-linecap:round;stroke-linejoin:round" />
  <line
     id="line2868"
     x1="1.5"
     y1="213.3"
     x2="709.40002"
     y2="213.3"
     style="fill:none;stroke:#ffffff;stroke-width:0.4px;stroke-linecap:round;stroke-linejoin:round" />
  <line
     id="line2870"
     x1="1.5"
     y1="185"
     x2="709.40002"
     y2="185"
     style="fill:none;stroke:#ffffff;stroke-width:0.4px;stroke-linecap:round;stroke-linejoin:round" />
  <line
     id="line2872"
     x1="1.5"
     y1="128.3"
     x2="709.40002"
     y2="128.3"
     style="fill:none;stroke:#ffffff;stroke-width:0.4px;stroke-linecap:round;stroke-linejoin:round" />
  <line
     id="line2874"
     x1="1.5"
     y1="99.900002"
     x2="709.40002"
     y2="99.900002"
     style="fill:none;stroke:#ffffff;stroke-width:0.4px;stroke-linecap:round;stroke-linejoin:round" />
  <line
     id="line2876"
     x1="1.5"
     y1="71.599998"
     x2="709.40002"
     y2="71.599998"
     style="fill:none;stroke:#ffffff;stroke-width:0.4px;stroke-linecap:round;stroke-linejoin:round" />
  <line
     id="line2878"
     x1="1.5"
     y1="43.200001"
     x2="709.40002"
     y2="43.200001"
     style="fill:none;stroke:#ffffff;stroke-width:0.4px;stroke-linecap:round;stroke-linejoin:round" />
  <line
     id="line2880"
     x1="369.20001"
     y1="0.69999999"
     x2="369.20001"
     y2="522.59998"
     style="fill:none;stroke:#ffffff;stroke-width:0.4px;stroke-linecap:round;stroke-linejoin:round" />
  <line
     id="line2882"
     x1="369.20001"
     y1="522.59998"
     x2="369.20001"
     y2="595.70001"
     style="fill:none;stroke:#ffffff;stroke-width:0.4px;stroke-linecap:round;stroke-linejoin:round" />
  <line
     id="line2884"
     x1="397.51639"
     y1="0.72728217"
     x2="397.51639"
     y2="522.4964"
     style="fill:none;stroke:#ffffff;stroke-width:0.409148px;stroke-linecap:round;stroke-linejoin:round" />
  <line
     id="line2886"
     x1="397.5"
     y1="522.59998"
     x2="397.5"
     y2="595.70001"
     style="fill:none;stroke:#ffffff;stroke-width:0.4px;stroke-linecap:round;stroke-linejoin:round" />
  <line
     id="line2888"
     x1="454.20001"
     y1="0.73802036"
     x2="454.20001"
     y2="595.93561"
     style="fill:none;stroke:#ffffff;stroke-width:0.43699px;stroke-linecap:round;stroke-linejoin:round" />
  <line
     id="line2892"
     x1="482.60001"
     y1="0.73888654"
     x2="482.60001"
     y2="596.18097"
     style="fill:none;stroke:#ffffff;stroke-width:0.43708px;stroke-linecap:round;stroke-linejoin:round" />
  <line
     id="line2896"
     x1="510.89999"
     y1="0.69999999"
     x2="510.89999"
     y2="499.39999"
     style="fill:none;stroke:#ffffff;stroke-width:0.4px;stroke-linecap:round;stroke-linejoin:round" />
  <line
     id="line2918-5"
     x1="510.86487"
     y1="522.57794"
     x2="510.86487"
     y2="527.77795"
     style="fill:none;stroke:#ffffff;stroke-width:0.4px;stroke-linecap:round;stroke-linejoin:round" />
  <line
     id="line2900"
     x1="539.29999"
     y1="0.69999999"
     x2="539.29999"
     y2="499.39999"
     style="fill:none;stroke:#ffffff;stroke-width:0.4px;stroke-linecap:round;stroke-linejoin:round" />
  <line
     id="line2918-3"
     x1="539.32245"
     y1="522.74927"
     x2="539.32245"
     y2="527.94928"
     style="fill:none;stroke:#ffffff;stroke-width:0.4px;stroke-linecap:round;stroke-linejoin:round" />
  <line
     id="line2918-3-8"
     x1="539.31427"
     y1="580.23102"
     x2="539.31427"
     y2="595.30591"
     style="fill:none;stroke:#ffffff;stroke-width:0.681059px;stroke-linecap:round;stroke-linejoin:round" />
  <line
     id="line2918-3-3"
     x1="510.93335"
     y1="580.15454"
     x2="510.93335"
     y2="594.9577"
     style="fill:none;stroke:#ffffff;stroke-width:0.674892px;stroke-linecap:round;stroke-linejoin:round" />
  <line
     id="line2918-3-4"
     x1="595.95807"
     y1="580.48151"
     x2="595.95807"
     y2="595.00092"
     style="fill:none;stroke:#ffffff;stroke-width:0.668394px;stroke-linecap:round;stroke-linejoin:round" />
  <line
     id="line2918-3-2"
     x1="624.22064"
     y1="580.03876"
     x2="624.22064"
     y2="595.00677"
     style="fill:none;stroke:#ffffff;stroke-width:0.678641px;stroke-linecap:round;stroke-linejoin:round" />
  <line
     id="line2918-3-6"
     x1="652.53632"
     y1="590.35492"
     x2="652.53632"
     y2="595.55493"
     style="fill:none;stroke:#ffffff;stroke-width:0.4px;stroke-linecap:round;stroke-linejoin:round" />
  <line
     id="line2918-7"
     x1="652.55829"
     y1="580.10913"
     x2="652.55829"
     y2="594.92035"
     style="fill:none;stroke:#ffffff;stroke-width:0.675078px;stroke-linecap:round;stroke-linejoin:round" />
  <line
     id="line2904"
     x1="596"
     y1="0.69999999"
     x2="596"
     y2="499.39999"
     style="fill:none;stroke:#ffffff;stroke-width:0.4px;stroke-linecap:round;stroke-linejoin:round" />
  <line
     id="line2906"
     x1="624.29999"
     y1="0.69999999"
     x2="624.29999"
     y2="499.39999"
     style="fill:none;stroke:#ffffff;stroke-width:0.4px;stroke-linecap:round;stroke-linejoin:round" />
  <line
     id="line2908"
     x1="652.70001"
     y1="0.69999999"
     x2="652.70001"
     y2="499.39999"
     style="fill:none;stroke:#ffffff;stroke-width:0.4px;stroke-linecap:round;stroke-linejoin:round" />
  <line
     id="line2910"
     x1="652.70001"
     y1="522.5"
     x2="652.70001"
     y2="527.70001"
     style="fill:none;stroke:#ffffff;stroke-width:0.4px;stroke-linecap:round;stroke-linejoin:round" />
  <line
     id="line2914"
     x1="624.29999"
     y1="522.5"
     x2="624.29999"
     y2="527.70001"
     style="fill:none;stroke:#ffffff;stroke-width:0.4px;stroke-linecap:round;stroke-linejoin:round" />
  <line
     id="line2918"
     x1="596"
     y1="522.5"
     x2="596"
     y2="527.70001"
     style="fill:none;stroke:#ffffff;stroke-width:0.4px;stroke-linecap:round;stroke-linejoin:round" />
  <g
     id="g5"
     transform="translate(14.275293,-0.11128663)">
    <path
       d="m 596.7,502.2 h 5.6 l 3.2,9.6 c 0.5,1.5 0.8,2.6 0.8,2.6 v 0 c 0,0 0.3,-1.1 0.8,-2.6 l 3.2,-9.6 h 5.6 V 520 h -3.8 v -14 0 c 0,0 -0.4,1.7 -1.1,3.8 l -3.4,10.2 h -2.9 l -3.4,-10.2 c -0.7,-2.1 -1.1,-3.8 -1.1,-3.8 v 0 13.9 h -3.5 v -17.8 z"
       style="fill:#ed6b21"
       id="path1" />
    <path
       d="m 623.3,520.1 h -3.8 v -17.8 h 3.8 v 7.9 l 6.5,-7.9 h 4.3 l -6.4,7.5 6.7,10.4 H 630 l -4.9,-7.5 -1.8,2.1 v 5.4 z"
       style="fill:#ed6b21"
       id="path2" />
    <path
       style="font-weight:bold;font-size:26.6667px;font-family:Helvetica;-inkscape-font-specification:'Helvetica Bold';white-space:pre;fill:#ed6b20;stroke-width:1.00047"
       d="m 331.94857,220.21561 c 0,0.75521 0.12153,1.38021 0.36459,1.875 0.45139,0.91146 1.2717,1.36719 2.46094,1.36719 0.72917,0 1.36285,-0.2474 1.90104,-0.74219 0.54688,-0.50347 0.82032,-1.22396 0.82032,-2.16146 0,-1.24132 -0.50347,-2.07031 -1.51042,-2.48698 -0.57292,-0.23437 -1.4757,-0.35156 -2.70834,-0.35156 v -2.65626 c 1.2066,-0.0173 2.04861,-0.13452 2.52604,-0.35156 0.82466,-0.36458 1.23699,-1.10243 1.23699,-2.21354 0,-0.72049 -0.21268,-1.30643 -0.63803,-1.75782 -0.41667,-0.45139 -1.00694,-0.67708 -1.77083,-0.67708 -0.87674,0 -1.52344,0.27778 -1.94011,0.83333 -0.40799,0.55556 -0.6033,1.29775 -0.58594,2.22657 h -3.46354 c 0.0347,-0.9375 0.19532,-1.82726 0.48177,-2.66928 0.30382,-0.73785 0.78125,-1.41927 1.43229,-2.04427 0.48611,-0.44271 1.06337,-0.78125 1.73178,-1.01563 0.6684,-0.23437 1.48871,-0.35156 2.46094,-0.35156 1.80555,0 3.25955,0.46875 4.36198,1.40625 1.11111,0.92882 1.66667,2.17882 1.66667,3.75001 0,1.11111 -0.32986,2.04861 -0.98959,2.8125 -0.41667,0.47743 -0.85069,0.80295 -1.30208,0.97656 0.33854,0 0.82465,0.2908 1.45833,0.8724 0.94619,0.87674 1.41928,2.07466 1.41928,3.59376 0,1.59722 -0.55556,3.00347 -1.66667,4.21875 -1.10243,1.2066 -2.73872,1.8099 -4.90886,1.8099 -2.67361,0 -4.53126,-0.8724 -5.57293,-2.61719 -0.54687,-0.92882 -0.85069,-2.1441 -0.91145,-3.64584 z"
       id="text18"
       transform="matrix(0.98018322,0,0,0.94522957,313.88943,306.40108)"
       aria-label="3.5"
       sodipodi:nodetypes="ccscsccccscscccccsscscccscsccc" />
  </g>
  <g
     id="g18">
    <path
       d="m 508.9,502.3 h 8 c 1.1,0 2.1,0.2 2.8,0.5 0.7,0.3 1.4,0.7 1.9,1.3 0.5,0.5 0.9,1.2 1.1,1.8 0.2,0.7 0.3,1.4 0.3,2.1 0,0.7 -0.1,1.4 -0.3,2.1 -0.2,0.7 -0.6,1.3 -1.1,1.8 -0.5,0.5 -1.1,1 -1.9,1.3 -0.8,0.3 -1.7,0.5 -2.8,0.5 h -4.1 v 6.4 h -3.9 z m 3.9,8.4 h 3 c 0.4,0 0.9,0 1.3,-0.1 0.4,0 0.8,-0.2 1.1,-0.4 0.3,-0.2 0.6,-0.5 0.7,-0.8 0.2,-0.3 0.3,-0.8 0.3,-1.4 0,-0.6 -0.1,-1 -0.3,-1.4 -0.2,-0.3 -0.4,-0.6 -0.7,-0.8 -0.3,-0.2 -0.7,-0.3 -1.1,-0.4 -0.4,-0.1 -0.9,-0.1 -1.3,-0.1 h -3 v 5.3 z"
       style="fill:#ffffff"
       id="path14" />
    <path
       d="m 524.2,502.3 h 9.6 c 0.8,0 1.5,0.1 2.1,0.4 0.6,0.3 1.2,0.6 1.6,1.1 0.4,0.4 0.8,1 1.1,1.6 0.2,0.6 0.4,1.2 0.4,1.9 0,1.1 -0.2,1.9 -0.6,2.7 -0.4,0.7 -1.2,1.4 -2.1,1.7 v 0 c 0.5,0.2 0.9,0.4 1.2,0.6 0.3,0.2 0.6,0.6 0.8,1 0.2,0.4 0.3,0.8 0.4,1.2 0.1,0.4 0.2,0.9 0.2,1.3 0,0.4 0,0.6 0,1 0,0.4 0,0.8 0.1,1.2 0,0.4 0.1,0.8 0.2,1.1 0.1,0.4 0.2,0.7 0.4,0.9 h -3.9 c -0.1,-0.3 -0.2,-0.6 -0.3,-0.9 0,-0.3 -0.1,-0.7 -0.1,-1.1 0,-0.4 0,-0.7 -0.1,-1.2 0,-0.4 0,-0.7 -0.1,-1.1 -0.1,-0.9 -0.4,-1.6 -0.9,-2 -0.5,-0.4 -1.1,-0.6 -2.1,-0.6 h -3.9 v 6.9 h -3.9 v -17.7 z m 3.9,8.1 h 4.3 c 0.9,0 1.5,-0.2 2,-0.6 0.4,-0.4 0.7,-1.1 0.7,-1.9 0,-0.8 -0.2,-1.5 -0.7,-1.9 -0.5,-0.4 -1.1,-0.6 -2,-0.6 h -4.3 z"
       style="fill:#ffffff"
       id="path15" />
    <path
       d="m 556.1,513.3 c 0,2.4 -0.7,4.2 -2,5.4 -1.4,1.2 -3.2,1.8 -5.6,1.8 -2.4,0 -4.3,-0.6 -5.6,-1.8 -1.3,-1.2 -2,-3 -2,-5.4 v -11.1 h 3.9 v 11.1 c 0,0.5 0,1 0.1,1.4 0,0.5 0.3,0.9 0.5,1.3 0.3,0.4 0.6,0.6 1.1,0.9 0.5,0.2 1.1,0.3 1.9,0.3 1.4,0 2.3,-0.3 2.9,-0.9 0.6,-0.6 0.8,-1.6 0.8,-2.9 v -11.1 h 3.9 v 11 0 z"
       style="fill:#ffffff"
       id="path16" />
    <path
       d="m 561.1,514.2 c 0,0.6 0.1,1.1 0.3,1.5 0.2,0.4 0.5,0.7 0.9,1 0.4,0.3 0.8,0.4 1.3,0.6 0.5,0.2 1,0.2 1.5,0.2 0.5,0 0.7,0 1.1,-0.1 0.4,-0.1 0.8,-0.2 1.1,-0.3 0.3,-0.1 0.6,-0.4 0.9,-0.7 0.2,-0.3 0.3,-0.6 0.3,-1.1 0,-0.5 -0.2,-0.9 -0.5,-1.2 -0.3,-0.3 -0.7,-0.5 -1.2,-0.7 -0.5,-0.2 -1.1,-0.4 -1.7,-0.5 -0.6,-0.1 -1.3,-0.3 -1.9,-0.5 -0.7,-0.2 -1.3,-0.4 -1.9,-0.6 -0.6,-0.2 -1.2,-0.5 -1.7,-0.9 -0.5,-0.4 -0.9,-0.9 -1.2,-1.4 -0.3,-0.6 -0.5,-1.3 -0.5,-2.1 0,-0.8 0.2,-1.7 0.6,-2.4 0.4,-0.7 0.9,-1.2 1.5,-1.7 0.6,-0.5 1.4,-0.8 2.1,-1 0.7,-0.2 1.6,-0.3 2.4,-0.3 0.8,0 1.8,0.1 2.7,0.3 0.9,0.2 1.6,0.5 2.3,1 0.7,0.5 1.2,1.1 1.6,1.8 0.4,0.7 0.6,1.6 0.6,2.6 h -3.8 c 0,-0.5 -0.1,-1 -0.3,-1.3 -0.2,-0.3 -0.4,-0.6 -0.7,-0.8 -0.3,-0.2 -0.7,-0.3 -1.1,-0.4 -0.4,-0.1 -0.9,-0.1 -1.3,-0.1 -0.4,0 -0.6,0 -1,0.1 -0.3,0 -0.6,0.2 -0.9,0.3 -0.3,0.2 -0.5,0.4 -0.6,0.6 -0.1,0.2 -0.2,0.6 -0.2,0.9 0,0.3 0,0.6 0.2,0.9 0.1,0.2 0.4,0.4 0.8,0.6 0.4,0.2 0.9,0.4 1.6,0.5 0.7,0.2 1.6,0.4 2.7,0.7 0.2,0 0.5,0.1 0.9,0.2 0.3,0.1 0.7,0.2 1.1,0.4 0.4,0.2 0.8,0.4 1.2,0.6 0.4,0.2 0.7,0.5 1.1,0.9 0.3,0.4 0.6,0.8 0.8,1.3 0.2,0.5 0.3,1.1 0.3,1.8 0,0.7 -0.2,1.6 -0.5,2.3 -0.3,0.7 -0.8,1.3 -1.4,1.8 -0.6,0.5 -1.4,0.9 -2.3,1.2 -0.9,0.3 -2,0.4 -3.2,0.4 -1.2,0 -1.9,-0.1 -2.9,-0.4 -1,-0.3 -1.7,-0.6 -2.4,-1.2 -0.7,-0.6 -1.3,-1.2 -1.7,-2 -0.4,-0.8 -0.6,-1.7 -0.6,-2.8 h 3.8 z"
       style="fill:#ffffff"
       id="path17" />
    <path
       d="m 578.5,502.3 h 4 l 6.6,17.8 h -4 l -1.4,-3.9 h -6.6 l -1.4,3.9 h -3.9 z m -0.4,10.9 h 4.6 l -2.2,-6.5 v 0 l -2.3,6.5 z"
       style="fill:#ffffff"
       id="path18" />
  </g>
  <path
     style="clip-rule:evenodd;fill:#3c4b5a;fill-rule:evenodd;stroke-width:0.252153;stroke-linejoin:round;stroke-miterlimit:1.41421"
     d="m 530.13796,531.82213 -14.16026,13.91612 0.24414,6.10355 v 4.63871 l 13.91612,13.91611 h 6.59184 v -0.24414 l -18.55482,-19.16517 18.55482,-18.92104 v -0.24414 z"
     id="path8"
     inkscape:connector-curvature="0"
     sodipodi:nodetypes="ccccccccccc" />
  <g
     transform="matrix(0.2441424,0,0,0.2441424,495.95799,429.78232)"
     id="g17"
     style="clip-rule:evenodd;fill-rule:evenodd;stroke-linejoin:round;stroke-miterlimit:1.41421">
                <path
   d="m 83.041215,464.92108 h 0.001 l -0.04211,27.03092 h 11 l 73.000005,-74 v 14.301 l -63,64.199 63,65.5 v 14 l -73.000002,-75 h -13 c -2,0 -4,-2 -4,-4 h -2 v -33 h 2 c 0,-1 1,-2 3.00004,-2 1.99996,0 2.99996,1 2.99996,2 z"
   style="fill:#b12f35"
   id="path15-4"
   inkscape:connector-curvature="0"
   sodipodi:nodetypes="cccccccccccccccccc" />

            </g>
  <g
     id="path839"
     transform="matrix(0.25215272,0,0,0.2521209,501.89336,424.41862)"
     style="clip-rule:evenodd;fill-rule:evenodd;stroke-linejoin:round;stroke-miterlimit:1.41421">
                <rect
   x="21"
   y="426"
   width="30.015202"
   height="153"
   style="fill:#3c4b5a;fill-rule:nonzero"
   id="rect12" />

            </g>
  <rect
     x="556.26123"
     y="544.27344"
     width="5.8594179"
     height="26.123238"
     style="clip-rule:evenodd;fill:#3c4b5a;fill-rule:evenodd;stroke-width:0.292019;stroke-linejoin:round;stroke-miterlimit:1.41421"
     id="rect23" />
  <path
     d="m 586.77628,557.08098 c 0,-2.65878 -0.59894,-4.72662 -1.79739,-6.20382 -1.19817,-1.4772 -3.12684,-2.21551 -5.78601,-2.21551 -0.5582,0 -1.14073,0.0246 -1.74816,0.0739 -0.60743,0.0492 -1.20637,0.15586 -1.7974,0.31993 v 14.72161 c 0.52539,0.36095 1.22308,0.69758 2.09276,1.00931 0.86999,0.31173 1.7974,0.4676 2.78224,0.4676 2.1669,0 3.75097,-0.73832 4.75222,-2.21551 1.00126,-1.4772 1.50174,-3.46301 1.50174,-5.95744 z m 6.10627,-0.0984 c 0,1.9694 -0.25434,3.77474 -0.76332,5.41572 -0.50897,1.64126 -1.23918,3.05283 -2.19121,4.23442 -0.95203,1.18158 -2.14229,2.10066 -3.57018,2.75722 -1.42818,0.65657 -3.04507,0.9847 -4.85038,0.9847 -1.21486,0 -2.33099,-0.14766 -3.34865,-0.44298 -1.01767,-0.29561 -1.85483,-0.62375 -2.51149,-0.985 v 9.99498 h -5.9583 v -34.02189 c 1.21458,-0.32843 2.7084,-0.64016 4.48118,-0.93548 1.77279,-0.29562 3.64402,-0.44328 5.61371,-0.44328 2.03533,0 3.85734,0.31173 5.46602,0.93548 1.60839,0.62376 2.97915,1.51822 4.11168,2.6834 1.13253,1.16517 2.0025,2.57675 2.60994,4.23442 0.60714,1.65739 0.911,3.52015 0.911,5.58829 z"
     style="clip-rule:evenodd;fill:#3c4b5a;fill-rule:nonzero;stroke-width:0.293;stroke-linejoin:round;stroke-miterlimit:1.41421"
     id="path25"
     inkscape:connector-curvature="0" />
  <path
     d="m 616.31759,557.08098 c 0,-2.65878 -0.59923,-4.72662 -1.79738,-6.20382 -1.19815,-1.4772 -3.12678,-2.21551 -5.78592,-2.21551 -0.5582,0 -1.14101,0.0246 -1.74815,0.0739 -0.60742,0.0492 -1.20635,0.15586 -1.79736,0.31993 v 14.72161 c 0.52508,0.36095 1.22276,0.69758 2.09272,1.00931 0.86997,0.31173 1.79737,0.4676 2.7822,0.4676 2.16658,0 3.75064,-0.73832 4.75188,-2.21551 1.00125,-1.4772 1.50201,-3.46301 1.50201,-5.95744 z m 6.1062,-0.0984 c 0,1.9694 -0.25463,3.77474 -0.76331,5.41572 -0.50898,1.64126 -1.23947,3.05283 -2.19149,4.23442 -0.95201,1.18158 -2.14196,2.10066 -3.57012,2.75722 -1.42788,0.65657 -3.04475,0.9847 -4.85033,0.9847 -1.21456,0 -2.33066,-0.14766 -3.34831,-0.44298 -1.01766,-0.29561 -1.85481,-0.62375 -2.51145,-0.985 v 9.99498 h -5.95852 v -34.02189 c 1.21485,-0.32843 2.70836,-0.64016 4.48112,-0.93548 1.77276,-0.29562 3.64396,-0.44328 5.61364,-0.44328 2.03558,0 3.85757,0.31173 5.46595,0.93548 1.60866,0.62376 2.9791,1.51822 4.11191,2.6834 1.13252,1.16517 2.00249,2.57675 2.60992,4.23442 0.60713,1.65739 0.91099,3.52015 0.91099,5.58829 z"
     style="clip-rule:evenodd;fill:#3c4b5a;fill-rule:nonzero;stroke-width:0.292998;stroke-linejoin:round;stroke-miterlimit:1.41421"
     id="path27"
     inkscape:connector-curvature="0" />
  <path
     d="m 627.06249,556.97024 c 0,-2.27083 0.33568,-4.26173 1.00732,-5.973 0.67135,-1.71127 1.56406,-3.13439 2.6781,-4.26966 1.11376,-1.13556 2.39126,-1.99119 3.83279,-2.56689 1.44124,-0.57602 2.91553,-0.86387 4.42256,-0.86387 3.53777,0 6.29773,1.10237 8.27963,3.3071 1.98218,2.20504 2.97313,5.49569 2.97313,9.87255 0,0.32898 -0.008,0.69938 -0.0246,1.1106 -0.0164,0.41151 -0.041,0.78162 -0.0737,1.11089 h -16.9531 c 0.16374,2.07315 0.8927,3.6772 2.18686,4.81276 1.29387,1.13527 3.16933,1.70304 5.62638,1.70304 1.44124,0 2.75996,-0.13188 3.95559,-0.39506 1.19563,-0.26318 2.13745,-0.54281 2.82548,-0.83919 l 0.78626,4.88679 c -0.32748,0.16478 -0.77808,0.33749 -1.35148,0.51843 -0.5731,0.18093 -1.22838,0.34542 -1.96552,0.49375 -0.73684,0.14804 -1.5313,0.27142 -2.38306,0.37011 -0.85177,0.0987 -1.71991,0.14803 -2.60441,0.14803 -2.26056,0 -4.22608,-0.33719 -5.89656,-1.01189 -1.67078,-0.6747 -3.04682,-1.61258 -4.12783,-2.81364 -1.081,-1.20106 -1.88364,-2.61625 -2.40792,-4.24527 -0.52398,-1.62874 -0.78597,-3.41403 -0.78597,-5.35558 z m 17.24756,-2.6656 c 0,-0.82274 -0.11462,-1.60435 -0.34387,-2.34485 -0.22924,-0.74048 -0.56521,-1.382 -1.00732,-1.9251 -0.4424,-0.54281 -0.98276,-0.97078 -1.62166,-1.28331 -0.63889,-0.31282 -1.4003,-0.46909 -2.28481,-0.46909 -0.91727,0 -1.71991,0.17272 -2.40792,0.51844 -0.68803,0.34542 -1.26931,0.79806 -1.74446,1.35733 -0.47487,0.55956 -0.84359,1.20135 -1.10558,1.9251 -0.26198,0.72404 -0.4424,1.46454 -0.54065,2.22148 z"
     style="clip-rule:evenodd;fill:#3c4b5a;fill-rule:nonzero;stroke-width:0.293064;stroke-linejoin:round;stroke-miterlimit:1.41421"
     id="path29"
     inkscape:connector-curvature="0" />
  <path
     d="m 671.20024,549.95442 c -0.48967,-0.16454 -1.16734,-0.33731 -2.03272,-0.5183 -0.86536,-0.181 -1.86948,-0.27149 -3.01233,-0.27149 -0.65318,0 -1.34718,0.0658 -2.08168,0.19744 -0.73479,0.13163 -1.24923,0.24681 -1.54304,0.34554 v 20.68901 h -5.92675 v -24.58976 c 1.14286,-0.4281 2.57135,-0.83122 4.28577,-1.20966 1.71443,-0.37873 3.61656,-0.56795 5.7064,-0.56795 0.39203,0 0.84905,0.0247 1.37166,0.0741 0.52231,0.0494 1.04492,0.11517 1.56752,0.19744 0.52232,0.0823 1.02859,0.18128 1.51827,0.29646 0.48997,0.11517 0.88169,0.22213 1.1755,0.32086 z"
     style="clip-rule:evenodd;fill:#3c4b5a;fill-rule:nonzero;stroke-width:0.292641;stroke-linejoin:round;stroke-miterlimit:1.41421"
     id="path31"
     inkscape:connector-curvature="0" />
  <rect
     id="rect12-6"
     style="clip-rule:evenodd;fill:#3c4b5a;fill-rule:nonzero;stroke-width:0.252153;stroke-linejoin:round;stroke-miterlimit:1.41421"
     height="38.574501"
     width="5.8594179"
     y="531.82214"
     x="542.58923" />
</svg>
